# MagicaVoxel @ Ephtracy

# group
o 

# material
mtllib bottom_tube.mtl
usemtl palette

# normals
vn -1 0 0
vn 1 0 0
vn 0 0 1
vn 0 0 -1
vn 0 -1 0
vn 0 1 0

# texcoords
vt 0.306641 0.5
vt 0.970703 0.5
vt 0.974609 0.5
vt 0.978516 0.5
vt 0.982422 0.5
vt 0.990234 0.5

# verts
v -1.9 0 1.9
v -1.9 0 1.8
v -1.9 0 1.6
v -1.9 0 1.5
v -1.9 0 1.2
v -1.9 0 1.1
v -1.9 0 1
v -1.9 0 -1.2
v -1.9 0 -1.3
v -1.9 0 -1.4
v -1.9 0 -1.8
v -1.9 0 -1.9
v -1.9 8 1.9
v -1.9 8 1.8
v -1.9 8 1.6
v -1.9 8 1.5
v -1.9 8 1.2
v -1.9 8 1.1
v -1.9 8 1
v -1.9 8 -1.2
v -1.9 8 -1.3
v -1.9 8 -1.4
v -1.9 8 -1.8
v -1.9 8 -1.9
v 1.9 0 1.9
v 1.9 0 1.8
v 1.9 0 1.4
v 1.9 0 1.3
v 1.9 0 1.2
v 1.9 0 -1
v 1.9 0 -1.1
v 1.9 0 -1.2
v 1.9 0 -1.5
v 1.9 0 -1.6
v 1.9 0 -1.8
v 1.9 0 -1.9
v 1.9 8 1.9
v 1.9 8 1.8
v 1.9 8 1.4
v 1.9 8 1.3
v 1.9 8 1.2
v 1.9 8 -1
v 1.9 8 -1.1
v 1.9 8 -1.2
v 1.9 8 -1.5
v 1.9 8 -1.6
v 1.9 8 -1.8
v 1.9 8 -1.9
v -1.9 0 1.9
v -1.9 8 1.9
v -1.8 0 1.9
v -1.8 8 1.9
v -1.6 0 1.9
v -1.6 8 1.9
v -1.5 0 1.9
v -1.5 8 1.9
v -1.2 0 1.9
v -1.2 8 1.9
v -1.1 0 1.9
v -1.1 8 1.9
v -1 0 1.9
v -1 8 1.9
v 1.2 0 1.9
v 1.2 8 1.9
v 1.3 0 1.9
v 1.3 8 1.9
v 1.4 0 1.9
v 1.4 8 1.9
v 1.8 0 1.9
v 1.8 8 1.9
v 1.9 0 1.9
v 1.9 8 1.9
v -1.9 0 -1.9
v -1.9 8 -1.9
v -1.8 0 -1.9
v -1.8 8 -1.9
v -1.4 0 -1.9
v -1.4 8 -1.9
v -1.3 0 -1.9
v -1.3 8 -1.9
v -1.2 0 -1.9
v -1.2 8 -1.9
v 1 0 -1.9
v 1 8 -1.9
v 1.1 0 -1.9
v 1.1 8 -1.9
v 1.2 0 -1.9
v 1.2 8 -1.9
v 1.5 0 -1.9
v 1.5 8 -1.9
v 1.6 0 -1.9
v 1.6 8 -1.9
v 1.8 0 -1.9
v 1.8 8 -1.9
v 1.9 0 -1.9
v 1.9 8 -1.9
v -1.9 0 1.9
v -1.8 0 1.9
v -1.6 0 1.9
v -1.5 0 1.9
v -1.2 0 1.9
v -1.1 0 1.9
v -1 0 1.9
v 1.2 0 1.9
v 1.3 0 1.9
v 1.4 0 1.9
v 1.8 0 1.9
v 1.9 0 1.9
v -1.9 0 1.8
v -1.8 0 1.8
v -1.6 0 1.8
v -1.5 0 1.8
v -1.2 0 1.8
v -1.1 0 1.8
v -1 0 1.8
v 1.2 0 1.8
v 1.3 0 1.8
v 1.4 0 1.8
v 1.8 0 1.8
v 1.9 0 1.8
v -1.9 0 1.6
v -1.8 0 1.6
v -1.9 0 1.5
v -1.8 0 1.5
v 1.8 0 1.4
v 1.9 0 1.4
v 1.8 0 1.3
v 1.9 0 1.3
v -1.9 0 1.2
v -1.8 0 1.2
v 1.8 0 1.2
v 1.9 0 1.2
v -1.9 0 1.1
v -1.8 0 1.1
v -1.9 0 1
v -1.8 0 1
v 1.8 0 -1
v 1.9 0 -1
v 1.8 0 -1.1
v 1.9 0 -1.1
v -1.9 0 -1.2
v -1.8 0 -1.2
v 1.8 0 -1.2
v 1.9 0 -1.2
v -1.9 0 -1.3
v -1.8 0 -1.3
v -1.9 0 -1.4
v -1.8 0 -1.4
v 1.8 0 -1.5
v 1.9 0 -1.5
v 1.8 0 -1.6
v 1.9 0 -1.6
v -1.9 0 -1.8
v -1.8 0 -1.8
v -1.4 0 -1.8
v -1.3 0 -1.8
v -1.2 0 -1.8
v 1 0 -1.8
v 1.1 0 -1.8
v 1.2 0 -1.8
v 1.5 0 -1.8
v 1.6 0 -1.8
v 1.8 0 -1.8
v 1.9 0 -1.8
v -1.9 0 -1.9
v -1.8 0 -1.9
v -1.4 0 -1.9
v -1.3 0 -1.9
v -1.2 0 -1.9
v 1 0 -1.9
v 1.1 0 -1.9
v 1.2 0 -1.9
v 1.5 0 -1.9
v 1.6 0 -1.9
v 1.8 0 -1.9
v 1.9 0 -1.9
v -1.9 8 1.9
v -1.8 8 1.9
v -1.6 8 1.9
v -1.5 8 1.9
v -1.2 8 1.9
v -1.1 8 1.9
v -1 8 1.9
v 1.2 8 1.9
v 1.3 8 1.9
v 1.4 8 1.9
v 1.8 8 1.9
v 1.9 8 1.9
v -1.9 8 1.8
v -1.8 8 1.8
v -1.6 8 1.8
v -1.5 8 1.8
v -1.2 8 1.8
v -1.1 8 1.8
v -1 8 1.8
v 1.2 8 1.8
v 1.3 8 1.8
v 1.4 8 1.8
v 1.8 8 1.8
v 1.9 8 1.8
v -1.9 8 1.6
v -1.8 8 1.6
v -1.9 8 1.5
v -1.8 8 1.5
v 1.8 8 1.4
v 1.9 8 1.4
v 1.8 8 1.3
v 1.9 8 1.3
v -1.9 8 1.2
v -1.8 8 1.2
v 1.8 8 1.2
v 1.9 8 1.2
v -1.9 8 1.1
v -1.8 8 1.1
v -1.9 8 1
v -1.8 8 1
v 1.8 8 -1
v 1.9 8 -1
v 1.8 8 -1.1
v 1.9 8 -1.1
v -1.9 8 -1.2
v -1.8 8 -1.2
v 1.8 8 -1.2
v 1.9 8 -1.2
v -1.9 8 -1.3
v -1.8 8 -1.3
v -1.9 8 -1.4
v -1.8 8 -1.4
v 1.8 8 -1.5
v 1.9 8 -1.5
v 1.8 8 -1.6
v 1.9 8 -1.6
v -1.9 8 -1.8
v -1.8 8 -1.8
v -1.4 8 -1.8
v -1.3 8 -1.8
v -1.2 8 -1.8
v 1 8 -1.8
v 1.1 8 -1.8
v 1.2 8 -1.8
v 1.5 8 -1.8
v 1.6 8 -1.8
v 1.8 8 -1.8
v 1.9 8 -1.8
v -1.9 8 -1.9
v -1.8 8 -1.9
v -1.4 8 -1.9
v -1.3 8 -1.9
v -1.2 8 -1.9
v 1 8 -1.9
v 1.1 8 -1.9
v 1.2 8 -1.9
v 1.5 8 -1.9
v 1.6 8 -1.9
v 1.8 8 -1.9
v 1.9 8 -1.9

# faces
f 13/5/1 2/5/1 1/5/1
f 14/4/1 3/4/1 2/4/1
f 14/5/1 2/5/1 13/5/1
f 15/6/1 4/6/1 3/6/1
f 15/4/1 3/4/1 14/4/1
f 16/4/1 5/4/1 4/4/1
f 16/6/1 4/6/1 15/6/1
f 17/2/1 6/2/1 5/2/1
f 17/4/1 5/4/1 16/4/1
f 18/4/1 7/4/1 6/4/1
f 18/2/1 6/2/1 17/2/1
f 19/2/1 8/2/1 7/2/1
f 19/4/1 7/4/1 18/4/1
f 20/3/1 9/3/1 8/3/1
f 20/2/1 8/2/1 19/2/1
f 21/2/1 10/2/1 9/2/1
f 21/3/1 9/3/1 20/3/1
f 22/3/1 11/3/1 10/3/1
f 22/2/1 10/2/1 21/2/1
f 23/5/1 12/5/1 11/5/1
f 23/3/1 11/3/1 22/3/1
f 24/5/1 12/5/1 23/5/1
f 25/5/2 26/5/2 37/5/2
f 26/3/2 27/3/2 38/3/2
f 37/5/2 26/5/2 38/5/2
f 27/2/2 28/2/2 39/2/2
f 38/3/2 27/3/2 39/3/2
f 28/3/2 29/3/2 40/3/2
f 39/2/2 28/2/2 40/2/2
f 29/2/2 30/2/2 41/2/2
f 40/3/2 29/3/2 41/3/2
f 30/4/2 31/4/2 42/4/2
f 41/2/2 30/2/2 42/2/2
f 31/2/2 32/2/2 43/2/2
f 42/4/2 31/4/2 43/4/2
f 32/4/2 33/4/2 44/4/2
f 43/2/2 32/2/2 44/2/2
f 33/6/2 34/6/2 45/6/2
f 44/4/2 33/4/2 45/4/2
f 34/4/2 35/4/2 46/4/2
f 45/6/2 34/6/2 46/6/2
f 35/5/2 36/5/2 47/5/2
f 46/4/2 35/4/2 47/4/2
f 47/5/2 36/5/2 48/5/2
f 51/5/3 50/5/3 49/5/3
f 52/5/3 50/5/3 51/5/3
f 53/4/3 52/4/3 51/4/3
f 54/4/3 52/4/3 53/4/3
f 55/6/3 54/6/3 53/6/3
f 56/6/3 54/6/3 55/6/3
f 57/4/3 56/4/3 55/4/3
f 58/4/3 56/4/3 57/4/3
f 59/2/3 58/2/3 57/2/3
f 60/2/3 58/2/3 59/2/3
f 61/4/3 60/4/3 59/4/3
f 62/4/3 60/4/3 61/4/3
f 63/2/3 62/2/3 61/2/3
f 64/2/3 62/2/3 63/2/3
f 65/3/3 64/3/3 63/3/3
f 66/3/3 64/3/3 65/3/3
f 67/2/3 66/2/3 65/2/3
f 68/2/3 66/2/3 67/2/3
f 69/3/3 68/3/3 67/3/3
f 70/3/3 68/3/3 69/3/3
f 71/5/3 70/5/3 69/5/3
f 72/5/3 70/5/3 71/5/3
f 73/5/4 74/5/4 75/5/4
f 75/5/4 74/5/4 76/5/4
f 75/3/4 76/3/4 77/3/4
f 77/3/4 76/3/4 78/3/4
f 77/2/4 78/2/4 79/2/4
f 79/2/4 78/2/4 80/2/4
f 79/3/4 80/3/4 81/3/4
f 81/3/4 80/3/4 82/3/4
f 81/2/4 82/2/4 83/2/4
f 83/2/4 82/2/4 84/2/4
f 83/4/4 84/4/4 85/4/4
f 85/4/4 84/4/4 86/4/4
f 85/2/4 86/2/4 87/2/4
f 87/2/4 86/2/4 88/2/4
f 87/4/4 88/4/4 89/4/4
f 89/4/4 88/4/4 90/4/4
f 89/6/4 90/6/4 91/6/4
f 91/6/4 90/6/4 92/6/4
f 91/4/4 92/4/4 93/4/4
f 93/4/4 92/4/4 94/4/4
f 93/5/4 94/5/4 95/5/4
f 95/5/4 94/5/4 96/5/4
f 109/5/5 98/5/5 97/5/5
f 110/4/5 99/4/5 98/4/5
f 110/5/5 98/5/5 109/5/5
f 111/6/5 100/6/5 99/6/5
f 111/4/5 99/4/5 110/4/5
f 112/4/5 101/4/5 100/4/5
f 112/6/5 100/6/5 111/6/5
f 113/2/5 102/2/5 101/2/5
f 113/4/5 101/4/5 112/4/5
f 114/4/5 103/4/5 102/4/5
f 114/2/5 102/2/5 113/2/5
f 115/2/5 104/2/5 103/2/5
f 115/4/5 103/4/5 114/4/5
f 116/3/5 105/3/5 104/3/5
f 116/2/5 104/2/5 115/2/5
f 117/2/5 106/2/5 105/2/5
f 117/3/5 105/3/5 116/3/5
f 118/3/5 107/3/5 106/3/5
f 118/2/5 106/2/5 117/2/5
f 119/5/5 108/5/5 107/5/5
f 119/3/5 107/3/5 118/3/5
f 120/5/5 108/5/5 119/5/5
f 121/4/5 110/4/5 109/4/5
f 122/1/5 118/1/5 117/1/5
f 122/4/5 110/4/5 121/4/5
f 122/1/5 111/1/5 110/1/5
f 122/1/5 112/1/5 111/1/5
f 122/1/5 119/1/5 118/1/5
f 122/1/5 117/1/5 116/1/5
f 122/1/5 116/1/5 115/1/5
f 122/1/5 115/1/5 114/1/5
f 122/1/5 114/1/5 113/1/5
f 122/1/5 113/1/5 112/1/5
f 123/6/5 122/6/5 121/6/5
f 124/1/5 119/1/5 122/1/5
f 124/6/5 122/6/5 123/6/5
f 125/3/5 120/3/5 119/3/5
f 125/1/5 119/1/5 124/1/5
f 126/3/5 120/3/5 125/3/5
f 127/1/5 125/1/5 124/1/5
f 127/2/5 126/2/5 125/2/5
f 128/2/5 126/2/5 127/2/5
f 129/4/5 124/4/5 123/4/5
f 130/1/5 127/1/5 124/1/5
f 130/4/5 124/4/5 129/4/5
f 131/3/5 128/3/5 127/3/5
f 131/1/5 127/1/5 130/1/5
f 132/3/5 128/3/5 131/3/5
f 133/2/5 130/2/5 129/2/5
f 134/1/5 131/1/5 130/1/5
f 134/2/5 130/2/5 133/2/5
f 135/4/5 134/4/5 133/4/5
f 136/1/5 131/1/5 134/1/5
f 136/4/5 134/4/5 135/4/5
f 137/2/5 132/2/5 131/2/5
f 137/1/5 131/1/5 136/1/5
f 138/2/5 132/2/5 137/2/5
f 139/1/5 137/1/5 136/1/5
f 139/4/5 138/4/5 137/4/5
f 140/4/5 138/4/5 139/4/5
f 141/2/5 136/2/5 135/2/5
f 142/1/5 139/1/5 136/1/5
f 142/2/5 136/2/5 141/2/5
f 143/2/5 140/2/5 139/2/5
f 143/1/5 139/1/5 142/1/5
f 144/2/5 140/2/5 143/2/5
f 145/3/5 142/3/5 141/3/5
f 146/1/5 143/1/5 142/1/5
f 146/3/5 142/3/5 145/3/5
f 147/2/5 146/2/5 145/2/5
f 148/1/5 143/1/5 146/1/5
f 148/2/5 146/2/5 147/2/5
f 149/4/5 144/4/5 143/4/5
f 149/1/5 143/1/5 148/1/5
f 150/4/5 144/4/5 149/4/5
f 151/1/5 149/1/5 148/1/5
f 151/6/5 150/6/5 149/6/5
f 152/6/5 150/6/5 151/6/5
f 153/3/5 148/3/5 147/3/5
f 154/1/5 151/1/5 148/1/5
f 154/3/5 148/3/5 153/3/5
f 155/1/5 151/1/5 154/1/5
f 156/1/5 151/1/5 155/1/5
f 157/1/5 151/1/5 156/1/5
f 158/1/5 151/1/5 157/1/5
f 159/1/5 151/1/5 158/1/5
f 160/1/5 151/1/5 159/1/5
f 161/1/5 151/1/5 160/1/5
f 162/1/5 151/1/5 161/1/5
f 163/4/5 152/4/5 151/4/5
f 163/1/5 151/1/5 162/1/5
f 164/4/5 152/4/5 163/4/5
f 165/5/5 154/5/5 153/5/5
f 166/3/5 155/3/5 154/3/5
f 166/5/5 154/5/5 165/5/5
f 167/2/5 156/2/5 155/2/5
f 167/3/5 155/3/5 166/3/5
f 168/3/5 157/3/5 156/3/5
f 168/2/5 156/2/5 167/2/5
f 169/2/5 158/2/5 157/2/5
f 169/3/5 157/3/5 168/3/5
f 170/4/5 159/4/5 158/4/5
f 170/2/5 158/2/5 169/2/5
f 171/2/5 160/2/5 159/2/5
f 171/4/5 159/4/5 170/4/5
f 172/4/5 161/4/5 160/4/5
f 172/2/5 160/2/5 171/2/5
f 173/6/5 162/6/5 161/6/5
f 173/4/5 161/4/5 172/4/5
f 174/4/5 163/4/5 162/4/5
f 174/6/5 162/6/5 173/6/5
f 175/5/5 164/5/5 163/5/5
f 175/4/5 163/4/5 174/4/5
f 176/5/5 164/5/5 175/5/5
f 177/5/6 178/5/6 189/5/6
f 178/4/6 179/4/6 190/4/6
f 189/5/6 178/5/6 190/5/6
f 179/6/6 180/6/6 191/6/6
f 190/4/6 179/4/6 191/4/6
f 180/4/6 181/4/6 192/4/6
f 191/6/6 180/6/6 192/6/6
f 181/2/6 182/2/6 193/2/6
f 192/4/6 181/4/6 193/4/6
f 182/4/6 183/4/6 194/4/6
f 193/2/6 182/2/6 194/2/6
f 183/2/6 184/2/6 195/2/6
f 194/4/6 183/4/6 195/4/6
f 184/3/6 185/3/6 196/3/6
f 195/2/6 184/2/6 196/2/6
f 185/2/6 186/2/6 197/2/6
f 196/3/6 185/3/6 197/3/6
f 186/3/6 187/3/6 198/3/6
f 197/2/6 186/2/6 198/2/6
f 187/5/6 188/5/6 199/5/6
f 198/3/6 187/3/6 199/3/6
f 199/5/6 188/5/6 200/5/6
f 189/4/6 190/4/6 201/4/6
f 197/1/6 198/1/6 202/1/6
f 201/4/6 190/4/6 202/4/6
f 190/1/6 191/1/6 202/1/6
f 191/1/6 192/1/6 202/1/6
f 198/1/6 199/1/6 202/1/6
f 196/1/6 197/1/6 202/1/6
f 195/1/6 196/1/6 202/1/6
f 194/1/6 195/1/6 202/1/6
f 193/1/6 194/1/6 202/1/6
f 192/1/6 193/1/6 202/1/6
f 201/6/6 202/6/6 203/6/6
f 202/1/6 199/1/6 204/1/6
f 203/6/6 202/6/6 204/6/6
f 199/3/6 200/3/6 205/3/6
f 204/1/6 199/1/6 205/1/6
f 205/3/6 200/3/6 206/3/6
f 204/1/6 205/1/6 207/1/6
f 205/2/6 206/2/6 207/2/6
f 207/2/6 206/2/6 208/2/6
f 203/4/6 204/4/6 209/4/6
f 204/1/6 207/1/6 210/1/6
f 209/4/6 204/4/6 210/4/6
f 207/3/6 208/3/6 211/3/6
f 210/1/6 207/1/6 211/1/6
f 211/3/6 208/3/6 212/3/6
f 209/2/6 210/2/6 213/2/6
f 210/1/6 211/1/6 214/1/6
f 213/2/6 210/2/6 214/2/6
f 213/4/6 214/4/6 215/4/6
f 214/1/6 211/1/6 216/1/6
f 215/4/6 214/4/6 216/4/6
f 211/2/6 212/2/6 217/2/6
f 216/1/6 211/1/6 217/1/6
f 217/2/6 212/2/6 218/2/6
f 216/1/6 217/1/6 219/1/6
f 217/4/6 218/4/6 219/4/6
f 219/4/6 218/4/6 220/4/6
f 215/2/6 216/2/6 221/2/6
f 216/1/6 219/1/6 222/1/6
f 221/2/6 216/2/6 222/2/6
f 219/2/6 220/2/6 223/2/6
f 222/1/6 219/1/6 223/1/6
f 223/2/6 220/2/6 224/2/6
f 221/3/6 222/3/6 225/3/6
f 222/1/6 223/1/6 226/1/6
f 225/3/6 222/3/6 226/3/6
f 225/2/6 226/2/6 227/2/6
f 226/1/6 223/1/6 228/1/6
f 227/2/6 226/2/6 228/2/6
f 223/4/6 224/4/6 229/4/6
f 228/1/6 223/1/6 229/1/6
f 229/4/6 224/4/6 230/4/6
f 228/1/6 229/1/6 231/1/6
f 229/6/6 230/6/6 231/6/6
f 231/6/6 230/6/6 232/6/6
f 227/3/6 228/3/6 233/3/6
f 228/1/6 231/1/6 234/1/6
f 233/3/6 228/3/6 234/3/6
f 234/1/6 231/1/6 235/1/6
f 235/1/6 231/1/6 236/1/6
f 236/1/6 231/1/6 237/1/6
f 237/1/6 231/1/6 238/1/6
f 238/1/6 231/1/6 239/1/6
f 239/1/6 231/1/6 240/1/6
f 240/1/6 231/1/6 241/1/6
f 241/1/6 231/1/6 242/1/6
f 231/4/6 232/4/6 243/4/6
f 242/1/6 231/1/6 243/1/6
f 243/4/6 232/4/6 244/4/6
f 233/5/6 234/5/6 245/5/6
f 234/3/6 235/3/6 246/3/6
f 245/5/6 234/5/6 246/5/6
f 235/2/6 236/2/6 247/2/6
f 246/3/6 235/3/6 247/3/6
f 236/3/6 237/3/6 248/3/6
f 247/2/6 236/2/6 248/2/6
f 237/2/6 238/2/6 249/2/6
f 248/3/6 237/3/6 249/3/6
f 238/4/6 239/4/6 250/4/6
f 249/2/6 238/2/6 250/2/6
f 239/2/6 240/2/6 251/2/6
f 250/4/6 239/4/6 251/4/6
f 240/4/6 241/4/6 252/4/6
f 251/2/6 240/2/6 252/2/6
f 241/6/6 242/6/6 253/6/6
f 252/4/6 241/4/6 253/4/6
f 242/4/6 243/4/6 254/4/6
f 253/6/6 242/6/6 254/6/6
f 243/5/6 244/5/6 255/5/6
f 254/4/6 243/4/6 255/4/6
f 255/5/6 244/5/6 256/5/6
